<?xml version="1.0" encoding="UTF-8" standalone="no"?>
<!-- Created with Inkscape (http://www.inkscape.org/) -->

<svg
   width="512"
   height="512"
   viewBox="0 0 512 512"
   version="1.1"
   id="svg1"
   xmlns="http://www.w3.org/2000/svg">
  <defs
     id="defs1" />
  <g
     id="layer1">
    <g
       id="g2">
      <g
         id="g1"
         transform="translate(324.7998,-133.80079)">
        <path
           d="M -68.798799,185 C -167.76875,184.99935 -248.00064,265.23123 -248,364.20117 c 0.059,52.77021 23.37445,102.8323 63.72854,136.83594 h -0.23622 l 115.708994,93.56447 115.707025,-93.56447 h -0.23622 C 87.025946,467.03347 110.34136,416.97138 110.4004,364.20117 110.40104,265.23199 30.170361,185.00043 -68.798799,185 Z m 0,25.60156 c 77.7604542,6.5e-4 140.798175,63.03837 140.798817,140.79883 4.16e-4,77.76123 -63.0376069,140.80013 -140.798817,140.80078 -77.762001,4.4e-4 -140.801241,-63.03879 -140.800781,-140.80078 6.4e-4,-77.76123 63.03953,-140.79926 140.800781,-140.79883 z"
           style="fill:#334488;fill-opacity:1;stroke-width:0.0995569"
           id="path1220" />
        <path
           d="m -68.798799,287.40039 -76.816401,64 0.0156,38.40039 h 57.099587 a 19.700017,33.500011 0 0 1 19.701204,-33.5 19.700017,33.500011 0 0 1 19.6992,33.5 H 8.00003 l 0.046866,-38.40039 z"
           style="fill:#334488;fill-opacity:1;stroke-width:0.0999999"
           id="path1222" />
        <path
           d="m -68.798799,210.60156 c -77.761251,-4.3e-4 -140.800141,63.0376 -140.800781,140.79883 -4.6e-4,77.76199 63.03878,140.80122 140.800781,140.80078 C 8.9624111,492.20052 72.000434,429.16162 72.000018,351.40039 71.999376,273.63993 8.9616552,210.60221 -68.798799,210.60156 Z m 0,76.79883 76.8456951,64 -0.046866,38.40039 H -49.099599 c 0,-18.50097 -8.819528,-33.49925 -19.6992,-33.5 -10.880466,-10e-4 -19.701166,14.99773 -19.701204,33.5 h -57.099587 l -0.0151,-38.40039 z"
           style="fill:#99aaee;fill-opacity:1;stroke-width:0.0999999"
           id="path1221" />
      </g>
    </g>
  </g>
</svg>
