<?xml version="1.0" encoding="UTF-8" standalone="no"?>
<!-- Created with Inkscape (http://www.inkscape.org/) -->

<svg
   width="2800"
   height="512"
   viewBox="0 0 740.83332 135.46667"
   version="1.1"
   id="svg1"
   xmlns="http://www.w3.org/2000/svg">
  <defs
     id="defs1" />
  <g
     id="g35"
     style="stroke-width:1.00013;stroke-dasharray:none">
    <path
       d="M 27.093437,13.54646 C 19.611712,13.546289 13.546289,19.611712 13.54646,27.093437 v 81.279793 c -1.71e-4,7.48177 6.065207,13.54715 13.546977,13.54698 7.481568,-1.2e-4 13.546631,-6.06541 13.54646,-13.54698 V 81.279793 h 40.639896 v 27.093437 c -1.71e-4,7.48184 6.065132,13.54715 13.546977,13.54698 7.48164,-1.2e-4 13.54663,-6.06534 13.54646,-13.54698 V 27.093437 C 108.3734,19.611839 102.30837,13.546574 94.82677,13.54646 87.34497,13.546289 81.279622,19.611637 81.279793,27.093437 V 54.186873 H 40.639897 V 27.093437 C 40.640068,19.611914 34.57496,13.546574 27.093437,13.54646 Z"
       style="fill:#6677bb;fill-opacity:1;stroke-width:1.00013;stroke-dasharray:none"
       id="path1219" />
  </g>
  <g
     id="g36"
     style="stroke-width:1.00013;stroke-dasharray:none"
     transform="translate(-8.276216)">
    <path
       d="m 172.72021,13.54646 c -26.1858,-1.71e-4 -47.41382,21.227845 -47.41365,47.413643 0.0156,13.962118 6.18449,27.207712 16.86151,36.204509 h -0.0625 l 30.61467,24.755598 30.61415,-24.755598 h -0.0625 C 213.94884,88.167815 220.11771,74.922221 220.13333,60.960103 220.1335,34.774507 198.9058,13.546574 172.72021,13.54646 Z m 0,6.773747 c 20.57412,1.71e-4 37.25285,16.6789 37.25302,37.253023 1.1e-4,20.574325 -16.6787,37.253368 -37.25302,37.25354 -20.57453,1.14e-4 -37.25366,-16.679013 -37.25354,-37.25354 1.7e-4,-20.574325 16.67921,-37.253137 37.25354,-37.253023 z"
       style="fill:#334488;fill-opacity:1;stroke-width:1.00013;stroke-dasharray:none"
       id="path1220" />
    <path
       d="M 172.72021,40.639897 152.39587,57.57323 152.4,67.733333 h 15.1076 a 5.212296,8.8635445 0 0 1 5.21261,-8.863541 5.212296,8.8635445 0 0 1 5.21208,8.863541 h 15.10761 l 0.0124,-10.160103 z"
       style="fill:#334488;fill-opacity:1;stroke-width:1.00013;stroke-dasharray:none"
       id="path1222" />
    <path
       d="m 172.72021,20.320207 c -20.57433,-1.14e-4 -37.25337,16.678698 -37.25354,37.253023 -1.2e-4,20.574527 16.67901,37.253654 37.25354,37.25354 20.57432,-1.72e-4 37.25313,-16.679215 37.25302,-37.25354 -1.7e-4,-20.574123 -16.6789,-37.252852 -37.25302,-37.253023 z m 0,20.31969 20.33209,16.933333 -0.0124,10.160103 h -15.10761 c 0,-4.895049 -2.3335,-8.863343 -5.21208,-8.863541 -2.87879,-2.88e-4 -5.2126,3.968149 -5.21261,8.863541 H 152.4 L 152.396,57.57323 Z"
       style="fill:#99aaee;fill-opacity:1;stroke-width:1.00013;stroke-dasharray:none"
       id="path1221" />
  </g>
  <g
     id="g37"
     style="stroke-width:1.00013;stroke-dasharray:none"
     transform="translate(-16.552442)">
    <path
       d="m 250.61313,13.54646 c -7.48145,1.14e-4 -13.54663,6.065528 -13.54646,13.546977 v 47.413126 c 0.044,12.766658 5.23503,24.976904 14.39808,33.866667 8.82065,8.64275 20.66599,13.50322 33.01504,13.54698 12.34923,-0.0436 24.19478,-4.90411 33.01556,-13.54698 9.16311,-8.889816 14.35412,-21.099932 14.39809,-33.866667 V 27.093437 c 1.7e-4,-7.48177 -6.06521,-13.547148 -13.54698,-13.546977 -7.48157,1.14e-4 -13.54663,6.065409 -13.54646,13.546977 v 4.587317 22.506119 8.707479 18.385441 4.644161 c -4.11561,7.369492 -11.87949,11.953741 -20.32021,11.998234 -8.44053,-0.04468 -16.20417,-4.628902 -20.31969,-11.998234 V 81.279793 63.089172 54.186873 31.718477 27.093437 c 1.7e-4,-7.48165 -6.06532,-13.547148 -13.54697,-13.546977 z"
       style="fill:#6677bb;fill-opacity:1;stroke-width:1.00013;stroke-dasharray:none"
       id="path1223" />
  </g>
  <g
     id="g38"
     style="stroke-width:1.00013;stroke-dasharray:none"
     transform="translate(-24.828413,0.06615174)">
    <path
       d="m 396.23991,13.460414 c -26.18558,6.7e-5 -47.41342,12.40291 -47.41313,27.702185 0.0464,30.440911 67.65378,24.50561 67.65378,52.969383 0,16.642208 -41.14271,18.018038 -40.87812,0 0.17679,-12.039413 -11.83125,-18.298024 -19.8236,-14.23789 -3.96891,2.016217 -6.95203,6.56487 -6.95203,14.23789 v 0.03979 c -3.2e-4,15.299328 21.22742,27.702108 47.4131,27.702178 26.18568,-7e-5 47.41342,-12.40285 47.41313,-27.702184 -10e-4,-30.452068 -67.65383,-24.549202 -67.65383,-53.009187 0,-16.642139 41.14272,-18.017966 40.87813,0 -0.17748,12.086595 11.92539,18.34632 19.91713,14.188798 3.92186,-2.040261 6.8585,-6.57644 6.8585,-14.188798 3.6e-4,-15.299255 -21.22748,-27.702098 -47.41306,-27.702165 z"
       style="fill:#6677bb;fill-opacity:1;stroke-width:1.00013;stroke-dasharray:none"
       id="path4" />
  </g>
  <g
     id="g39"
     style="stroke-width:1.00013;stroke-dasharray:none"
     transform="translate(-33.106709)">
    <path
       d="m 474.13284,13.526566 c -7.48131,1.14e-4 -13.54635,6.065154 -13.54646,13.54646 -1.7e-4,7.481508 6.06495,13.546862 13.54646,13.546977 h 20.29385 V 94.82703 h 27.09344 V 40.620003 h 20.35069 c 7.48176,1.71e-4 13.54715,-6.065222 13.54698,-13.546977 -1.2e-4,-7.481553 -6.06543,-13.546631 -13.54698,-13.54646 z m 67.71473,81.308732 c -0.0288,0.0037 -0.0575,0.0075 -0.0863,0.01137 h -67.62843 c -7.48159,1.14e-4 -13.54663,6.065382 -13.54646,13.546972 1.1e-4,7.48138 6.06508,13.54634 13.54646,13.54646 h 67.71008 v -0.0124 l 0.005,5.1e-4 c 7.48142,-1.1e-4 13.54634,-6.06503 13.54646,-13.54646 -1.2e-4,-7.48142 -6.06504,-13.546337 -13.54646,-13.546451 z"
       style="fill:#6677bb;fill-opacity:1;stroke-width:1.00013;stroke-dasharray:none"
       id="path9" />
  </g>
  <g
     id="g40"
     style="stroke-width:1.00013;stroke-dasharray:none"
     transform="translate(-38.029355,0.16769224)">
    <path
       d="m 582.60036,13.171283 c -7.4814,1.14e-4 -13.54635,6.065064 -13.54646,13.54646 v 80.610077 c -0.0374,0.23598 -0.0686,0.47291 -0.0935,0.71055 1.2e-4,7.48144 6.06502,13.54634 13.54646,13.54646 7.48145,-1.2e-4 13.54635,-6.06502 13.54646,-13.54646 V 27.428294 c 0.0374,-0.235982 0.0686,-0.472919 0.0935,-0.710551 -1.2e-4,-7.481396 -6.06506,-13.546346 -13.54646,-13.54646 z"
       style="fill:#6677bb;fill-opacity:1;stroke-width:1.00013;stroke-dasharray:none"
       id="path18" />
    <path
       d="m 616.45509,54.20651 c -1.40281,2.2e-5 -2.75563,0.213435 -4.02818,0.609265 -0.42419,0.131944 -0.83971,0.283887 -1.24489,0.45527 -0.40517,0.171383 -0.80001,0.361955 -1.1839,0.570508 -0.3839,0.208552 -0.75691,0.43506 -1.11725,0.678511 -0.36034,0.243452 -0.70831,0.503717 -1.04283,0.779798 -0.33452,0.27608 -0.65527,0.567924 -0.9617,0.874365 -0.30643,0.30644 -0.59829,0.627685 -0.87436,0.962215 -0.27607,0.33453 -0.53636,0.682481 -0.7798,1.04283 -0.24344,0.36035 -0.46997,0.733345 -0.67851,1.117245 -0.20854,0.383899 -0.39914,0.778728 -0.57051,1.183907 -0.17137,0.405179 -0.32386,0.820696 -0.45579,1.244885 -0.39578,1.27257 -0.60878,2.625373 -0.60874,4.028178 2e-5,1.402767 0.21345,2.755651 0.60926,4.028178 0.13194,0.424175 0.2839,0.83972 0.45527,1.244885 0.17138,0.405165 0.36197,0.800022 0.57051,1.183907 0.20854,0.383885 0.43507,0.756392 0.67851,1.116728 0.24344,0.360335 0.50373,0.708314 0.7798,1.04283 0.27607,0.334517 0.56793,0.655788 0.87436,0.962215 0.30643,0.306428 0.6277,0.598297 0.96222,0.874366 0.33451,0.276069 0.68249,0.536357 1.04283,0.779797 0.36033,0.243441 0.73284,0.469969 1.11673,0.678512 0.38388,0.208542 0.77874,0.399133 1.1839,0.570507 0.40517,0.171375 0.82071,0.323332 1.24489,0.45527 1.27252,0.395811 2.62541,0.609244 4.02818,0.609265 h 33.85529 c 0.2338,-4e-6 0.46623,-0.0059 0.69712,-0.01757 1.15443,-0.05853 2.27062,-0.261854 3.33106,-0.591695 0.42418,-0.131937 0.83972,-0.283896 1.24489,-0.45527 0.40516,-0.171373 0.80002,-0.361966 1.1839,-0.570507 0.38389,-0.208542 0.7564,-0.435073 1.11673,-0.678512 0.36034,-0.243439 0.70832,-0.50373 1.04283,-0.779797 0.33452,-0.276068 0.65579,-0.567939 0.96222,-0.874366 0.30642,-0.306426 0.59829,-0.627699 0.87436,-0.962215 0.27607,-0.334515 0.53636,-0.682495 0.7798,-1.04283 0.24344,-0.360335 0.46997,-0.732843 0.67851,-1.116728 0.20854,-0.383884 0.39914,-0.778742 0.57051,-1.183907 0.17137,-0.405164 0.32333,-0.82071 0.45527,-1.244885 0.39581,-1.272526 0.60924,-2.625411 0.60926,-4.028178 4e-5,-1.402805 -0.21296,-2.755609 -0.60874,-4.028178 -0.13193,-0.424189 -0.28442,-0.839706 -0.45579,-1.244885 -0.17137,-0.405179 -0.36197,-0.800008 -0.57051,-1.183907 -0.20854,-0.383899 -0.43507,-0.756896 -0.67851,-1.117245 -0.24344,-0.360348 -0.50373,-0.708301 -0.7798,-1.04283 -0.27606,-0.334529 -0.56794,-0.655776 -0.87436,-0.962215 -0.30643,-0.306439 -0.62718,-0.598286 -0.9617,-0.874365 -0.33452,-0.27608 -0.68249,-0.536348 -1.04283,-0.779798 -0.36034,-0.24345 -0.73336,-0.46996 -1.11725,-0.678511 -0.38389,-0.208551 -0.77873,-0.399126 -1.1839,-0.570508 -0.40518,-0.171382 -0.8207,-0.323327 -1.24489,-0.45527 -1.27255,-0.395828 -2.62537,-0.609243 -4.02818,-0.609265 z"
       style="fill:#6677bb;fill-opacity:1;stroke-width:1.00013;stroke-dasharray:none"
       id="path20" />
    <path
       d="m 616.4556,94.866561 c -1.40284,-3.2e-5 -2.7561,0.212949 -4.02869,0.608748 -0.4242,0.131933 -0.83918,0.284412 -1.24437,0.455786 -0.40519,0.171375 -0.80052,0.361962 -1.18442,0.570508 -0.38391,0.208546 -0.75638,0.435064 -1.11673,0.678512 -0.36036,0.243447 -0.7083,0.503718 -1.04283,0.779797 -0.33453,0.276079 -0.65578,0.567925 -0.96222,0.874365 -0.30644,0.306441 -0.59828,0.627683 -0.87436,0.962215 -0.27608,0.334528 -0.53635,0.682478 -0.7798,1.042828 -0.24345,0.36036 -0.46997,0.73283 -0.67851,1.11673 -0.20855,0.38391 -0.39914,0.77924 -0.57051,1.18442 -0.17137,0.40519 -0.32385,0.82017 -0.45579,1.24437 -0.3958,1.2726 -0.60878,2.62585 -0.60874,4.0287 2e-5,1.4028 0.21343,2.75562 0.60926,4.02818 0.13194,0.42418 0.28389,0.83971 0.45527,1.24488 0.17138,0.40517 0.36196,0.80002 0.57051,1.18391 0.20855,0.38389 0.43506,0.7569 0.67851,1.11724 0.24345,0.36034 0.50372,0.70831 0.7798,1.04283 0.27608,0.33452 0.56792,0.65527 0.87436,0.9617 0.30644,0.30643 0.62769,0.5983 0.96222,0.87437 0.33453,0.27606 0.68248,0.53636 1.04283,0.77979 0.36035,0.24344 0.73334,0.46998 1.11724,0.67852 0.3839,0.20853 0.77873,0.39914 1.18391,0.5705 0.40518,0.17137 0.8207,0.32386 1.24488,0.45579 1.27257,0.39578 2.62538,0.60878 4.02818,0.60875 h 33.85478 c 1.40277,-2e-5 2.75565,-0.21346 4.02818,-0.60927 0.42418,-0.13194 0.83972,-0.28389 1.24489,-0.45527 0.40516,-0.17137 0.80002,-0.36196 1.1839,-0.5705 0.38389,-0.20855 0.7564,-0.43508 1.11673,-0.67852 0.36034,-0.24344 0.70832,-0.50373 1.04283,-0.77979 0.33452,-0.27607 0.65579,-0.56794 0.96222,-0.87437 0.30642,-0.30643 0.59829,-0.6277 0.87436,-0.96221 0.27607,-0.33452 0.53636,-0.6825 0.7798,-1.04283 0.24344,-0.36034 0.46997,-0.73285 0.67851,-1.11673 0.20854,-0.38389 0.39913,-0.77874 0.57051,-1.18391 0.17137,-0.40516 0.32333,-0.82071 0.45527,-1.24488 0.39581,-1.27253 0.60924,-2.62542 0.60926,-4.02818 4e-5,-1.40281 -0.21296,-2.75561 -0.60874,-4.02818 -0.13193,-0.42419 -0.28442,-0.83971 -0.45579,-1.24489 -0.17137,-0.40518 -0.36197,-0.8 -0.57051,-1.1839 -0.20854,-0.3839 -0.43507,-0.7569 -0.67851,-1.11725 -0.24344,-0.36035 -0.50373,-0.7083 -0.7798,-1.042828 -0.27607,-0.33453 -0.56793,-0.655774 -0.87436,-0.962215 -0.30643,-0.30644 -0.62718,-0.598284 -0.9617,-0.874365 -0.33452,-0.276081 -0.68249,-0.536346 -1.04283,-0.779797 -0.36034,-0.243452 -0.73335,-0.46996 -1.11725,-0.678512 -0.38389,-0.208552 -0.77873,-0.399125 -1.1839,-0.570508 -0.40518,-0.171383 -0.8207,-0.323325 -1.24489,-0.455269 -1.27255,-0.39583 -2.62537,-0.609244 -4.02818,-0.609265 z"
       style="fill:#6677bb;fill-opacity:1;stroke-width:1.00013;stroke-dasharray:none"
       id="path21" />
    <path
       d="m 616.4786,13.546459 c -7.48139,1.14e-4 -13.54634,6.065064 -13.54646,13.54646 -1.7e-4,7.481598 6.06486,13.546862 13.54646,13.546977 h 33.80827 c 7.48165,-1.15e-4 13.54663,-6.065334 13.54646,-13.546977 -1.1e-4,-7.481441 -6.06502,-13.546346 -13.54646,-13.54646 z"
       style="fill:#6677bb;fill-opacity:1;stroke-width:1.00013;stroke-dasharray:none"
       id="path19" />
  </g>
  <g
     id="g41"
     style="stroke-width:1.00013;stroke-dasharray:none"
     transform="translate(-42.873121,-0.02015376)">
    <path
       d="m 690.88019,13.546715 c -7.48134,-1.71e-4 -13.54686,6.065116 -13.54697,13.54646 v 4.823478 71.633867 4.86276 c -1.7e-4,7.48166 6.06531,13.54715 13.54697,13.54698 h 27.07225 v -0.0403 c 29.9256,1.1e-4 54.18671,-24.260771 54.18688,-54.186362 1.1e-4,-29.925793 -24.26108,-54.186986 -54.18688,-54.186873 z m 27.07225,27.156999 c 14.92784,-1.7e-4 27.03005,12.102035 27.02988,27.029874 -1.2e-4,14.927638 -12.10224,27.029527 -27.02988,27.029358 -4.7609,-0.0397 -9.4269,-1.336251 -13.52579,-3.758427 V 44.462141 c 4.0989,-2.422181 8.76488,-3.718724 13.52579,-3.758427 z"
       style="fill:#6677bb;fill-opacity:1;stroke-width:1.00013;stroke-dasharray:none"
       id="path25" />
  </g>
</svg>
